<svg id="Layer_1" data-name="Layer 1" xmlns="http://www.w3.org/2000/svg" viewBox="0 0 432 432">
  <defs>
    <style>
      .cls-1, .cls-3, .cls-9 {
        fill: #fff;
      }

      .cls-1, .cls-2 {
        opacity: 0.73;
      }

      .cls-4 {
        fill: #3d3d49;
      }

      .cls-5 {
        fill: #33333f;
      }

      .cls-6 {
        fill: #6b6b8c;
      }

      .cls-7 {
        fill: #484848;
      }

      .cls-8 {
        fill: #f90;
      }

      .cls-9 {
        opacity: 0.36;
        isolation: isolate;
      }
    </style>
  </defs>
  <title>ci-icon</title>
  <circle class="cls-1" cx="215.82" cy="216" r="206.35"/>
  <g class="cls-2">
    <path class="cls-3" d="M215.82,15.65a200.4,200.4,0,0,1,78,385,200.4,200.4,0,0,1-156-369.22,199.15,199.15,0,0,1,78-15.74m0-6C101.86,9.65,9.47,102,9.47,216s92.39,206.35,206.35,206.35S422.17,330,422.17,216,329.78,9.65,215.82,9.65Z"/>
  </g>
  <g>
    <g>
      <g>
        <path class="cls-4" d="M277.37,362.56a54.54,54.54,0,0,1-7.11-.47,88.09,88.09,0,0,1-15-3.33c-9.83-3-18.6-6-26.6-12.3-2.86-2.26-5.31-5.15-5.86-6.89a6.28,6.28,0,0,0-.27-.87,5.81,5.81,0,0,0-5.4-3.63,5.7,5.7,0,0,0-2.19.43l-.1,0-.09.05a7.34,7.34,0,0,0-3.23,3.42,25.36,25.36,0,0,1-1.91,2.67,28.06,28.06,0,0,1-5.2,5,67.21,67.21,0,0,1-25.62,12.86c-5.12,1.37-10.1,2.6-15,2.78-1.12,0-2.23.07-3.33.07-.89,0-1.73,0-2.52-.07a12.56,12.56,0,0,0,4.41-4.34,2.65,2.65,0,0,0-2.27-4,2.65,2.65,0,0,0-1,.18c-3.72,1.62-10,1.79-12.46,1.79h-1.15c-11.47-.25-22.06-3.66-29.84-9.59a38.63,38.63,0,0,1-14.24-23.45,28.67,28.67,0,0,1-.47-3c.07.15.13.31.2.46a19.14,19.14,0,0,0,10.49,9.87A42.6,42.6,0,0,0,128,333.63,30.92,30.92,0,0,0,144.71,329a47.12,47.12,0,0,0,11.78-11c1.24-1.55,2.42-3.21,3.57-4.81.39-.56.78-1.11,1.18-1.66a37.3,37.3,0,0,1,5.29-5.8,54,54,0,0,1,13.53-9.17A34.65,34.65,0,0,1,184,295l.12,0,0,0a13.43,13.43,0,0,0,5.5,5.6,11,11,0,0,0,4,1.32l.48,0a5.74,5.74,0,0,0,2.26-.53,3.48,3.48,0,0,1,.79-.25h.27c1.14,0,2.29.71,3.73,2.31a22.13,22.13,0,0,0,5.36,4.85,17.33,17.33,0,0,0,7.18,2.31c.39,0,.73,0,1.07,0A16.31,16.31,0,0,0,228,303.73c.22-.29.47-.68.73-1.07a6.35,6.35,0,0,1,1.23-1.59l.08-.06a1.21,1.21,0,0,1,.77-.27H231a1.71,1.71,0,0,1,1.29.71l.5.7.85.11a2.73,2.73,0,0,0,.41,0c1.95,0,4.79-1.9,4.82-1.92a6.21,6.21,0,0,0,2.92-5.47c-.18-4-4.23-7.47-6.6-8.88a36.36,36.36,0,0,0-4-2l-.1,0a9.23,9.23,0,0,1-2.2-1.15c-.18-.18-.23-.43-.32-1.34l-.06-.64a22.15,22.15,0,0,0-.93-4.24,30.88,30.88,0,0,0-2.45-5.22c-.52-.93-1-1.82-1.43-2.73a22.48,22.48,0,0,1-2-7.45,35.91,35.91,0,0,1,2-15.23,39.46,39.46,0,0,1,3.61-7.49c.15-.24.31-.47.47-.71a11.3,11.3,0,0,0,.85-1.34,2.81,2.81,0,0,0-.58-3.4l-.14-.16a22.2,22.2,0,0,0-2.78-2.79,13.48,13.48,0,0,0-7.93-3.29H217a16,16,0,0,0-8.38,2.4,35.66,35.66,0,0,0-6.54,4.66c-2.38,2.2-3.24,5.17-2.57,8.85.11.58.23,1.17.35,1.76a15,15,0,0,1,.46,6.21,10.28,10.28,0,0,1-1.95,3.59,23,23,0,0,0-1.79,2.82c-.38.76-.68,1.45-.94,2.06s-.43,1-.63,1.38l-.25.45v.54a1.58,1.58,0,0,1-1.27,1.21h-.22a1.6,1.6,0,0,1-.53-.09.65.65,0,0,1-.16-.07l-.09-.06-.09,0h0a26.53,26.53,0,0,1-2.47-2l-.11-.09c-3.27-2.58-8.78-3-11.77-3a34.07,34.07,0,0,0-6.32.58c-1.89.35-3.74.82-5.53,1.27A42.59,42.59,0,0,1,155.66,261h-.44a22,22,0,0,1-7.66-1.5,28.25,28.25,0,0,1-5.76-3.29,32.08,32.08,0,0,1,2.06-2.47,25.79,25.79,0,0,1,5.23-4.37A21.73,21.73,0,0,1,160.81,246a20.68,20.68,0,0,1,2.23.11,28.3,28.3,0,0,1,7.34,2,16.34,16.34,0,0,0,5.8,1.07c.43,0,.87,0,1.3-.06,5.26-.41,9.34-3.39,10.66-7.78l.81-2.72-2.84.15h-.35c-3.35,0-5.78-2.69-8.18-5.7-2.58-3.24-5.84-6.72-10.43-8a43.62,43.62,0,0,0-11.66-1.64,35.86,35.86,0,0,0-24.93,9.68,12.36,12.36,0,0,1,2.78-5.77l3-3.26-4.45-.1c-1.58,0-3-.11-4.36-.23a14.18,14.18,0,0,0,3.24-2.81,5.49,5.49,0,0,0,.75-6,7.76,7.76,0,0,0-2.4-2.74,15.45,15.45,0,0,0-2-1.32l-.09,0A225.79,225.79,0,0,1,101,196.13a44.92,44.92,0,0,1-7.91-6.8,18.51,18.51,0,0,1-2.61-3.89,18.28,18.28,0,0,1,8.17-24.54,18.69,18.69,0,0,1,16.44,0,37.69,37.69,0,0,1,5.57,3.71c1.07.81,2.17,1.64,3.3,2.39,6.66,4.52,42.5,27.09,92.93,27.09,33.88,0,66.3-10,96.36-29.76,7.76-5.09,10.21-5.09,12.81-5.09,12.66,0,18.56,11.07,18.56,18.55,0,10.25-7.47,15.12-14.7,19.84l-.63.42a247.4,247.4,0,0,1-23.66,13.23,23.75,23.75,0,0,0-2.39,1.48l-.4.31a5.8,5.8,0,0,0-.63,8.18,14.57,14.57,0,0,0,3.09,2.58c-1.71.15-3.46.22-5,.22h-2.83l.94,2.67a11.52,11.52,0,0,0,6.11,6.32,8,8,0,0,0-.16,8.85,13,13,0,0,0-1.1,1.38,19.2,19.2,0,0,0-.48,24.21,54.45,54.45,0,0,1-1.47,5.92c-3.05,10.34-12.17,19.4-23.83,23.68a19.14,19.14,0,0,0-3.48,1.28l-.09,0-.09.06a4.87,4.87,0,0,0-2,5.84,6.67,6.67,0,0,0,3.12,3.16l.39.23a35,35,0,0,1,3.47,2.4,58.28,58.28,0,0,1,6.93,6.29c1.06,1.12,2,2.32,3,3.59s1.91,2.43,3,3.6a29.21,29.21,0,0,0,33.94,6.08,19.82,19.82,0,0,0,9.46-9.8,42.06,42.06,0,0,1-3.92,14.61c-4.89,10.62-13.43,18.07-24,21a57.57,57.57,0,0,1-15.12,2l-1.3,0c-5.55-.12-10.11-1.24-13.56-3.34a2.37,2.37,0,0,0-3.46,1.21,2.32,2.32,0,0,0,.08,1.81l0,.09a13.71,13.71,0,0,0,5,5.32ZM120.72,312.91a9.35,9.35,0,0,1-4.32-1.06,10.33,10.33,0,0,1-5.53-8.53c0-.17,0-.35,0-.54a5.14,5.14,0,0,0-.88-3.43,3.84,3.84,0,0,0-1.26-1,26.25,26.25,0,0,1,2.42-2,16.42,16.42,0,0,1,9.5-3.56,11.43,11.43,0,0,1,3.24.46,10.22,10.22,0,0,1,7,8.21,9.54,9.54,0,0,1-2.31,7.76A10.58,10.58,0,0,1,120.72,312.91ZM318.89,304a5.1,5.1,0,0,1-4.94-3.85,4.79,4.79,0,0,1,.82-4.23,5.65,5.65,0,0,1,4.43-2.15,5.42,5.42,0,0,1,1.49.21,16.49,16.49,0,0,1,5,2.89,3.7,3.7,0,0,0-1.73,2.77,5.1,5.1,0,0,1-5.06,4.36Z"/>
        <path class="cls-5" d="M106.82,161a16.73,16.73,0,0,1,7.32,1.69,35.71,35.71,0,0,1,5.28,3.53c1.09.82,2.21,1.67,3.37,2.44,6.75,4.58,43.05,27.44,94.06,27.44,34.27,0,67.06-10.12,97.45-30.08,7.27-4.77,9.43-4.77,11.72-4.77,11.7,0,16.56,10.78,16.56,16.55,0,9.16-6.7,13.53-13.79,18.16l-.62.41a243.6,243.6,0,0,1-23.46,13.13l-.07,0-.07,0a24.92,24.92,0,0,0-2.54,1.58l-.53.41a7.82,7.82,0,0,0-1.24,10.5h-5.7l1.89,5.34a12.75,12.75,0,0,0,5.31,6.44,10.08,10.08,0,0,0,.13,7.81l-.3.42a21.19,21.19,0,0,0-1,25.9c-.34,1.63-.76,3.26-1.25,4.84v.06c-2.85,9.7-11.47,18.23-22.5,22.31a21.8,21.8,0,0,0-3.74,1.38l-.19.1-.18.11a6.88,6.88,0,0,0-2.83,8.23l0,.05v0a8.57,8.57,0,0,0,3.94,4.09l.4.24a32.26,32.26,0,0,1,3.29,2.28,56.3,56.3,0,0,1,6.67,6.06c1,1.06,1.92,2.22,2.89,3.46s2,2.49,3.08,3.71a31.21,31.21,0,0,0,36.29,6.53,22.31,22.31,0,0,0,5-3.35,46.75,46.75,0,0,1-2.14,5.52c-4.65,10.07-12.73,17.14-22.74,19.89a55.83,55.83,0,0,1-14.6,2l-1.26,0c-5.19-.11-9.42-1.14-12.54-3a4.4,4.4,0,0,0-2.29-.64,4.28,4.28,0,0,0-1.83.4,4.37,4.37,0,0,0-2.14,5.79l0,.1.05.09a15.48,15.48,0,0,0,1.44,2.26c-1-.07-1.95-.18-2.92-.31a84.38,84.38,0,0,1-14.65-3.26c-9.62-2.93-18.21-5.86-25.93-11.95-2.63-2.07-4.76-4.67-5.17-5.87a7.7,7.7,0,0,0-.34-1.06,7.84,7.84,0,0,0-10.2-4.32l-.19.08-.18.09A9.39,9.39,0,0,0,209.8,338a24.77,24.77,0,0,1-1.7,2.36l0,0,0,0a25.53,25.53,0,0,1-4.81,4.65l-.06.05-.07.05a65.27,65.27,0,0,1-24.83,12.44c-5.17,1.38-9.83,2.53-14.5,2.7l-.56,0a13.57,13.57,0,0,0,.91-1.33l0,0,0,0a4.69,4.69,0,0,0,.3-4,4.63,4.63,0,0,0-4.33-2.95,4.47,4.47,0,0,0-1.7.32l-.07,0-.07,0c-2.29,1-6.62,1.59-11.59,1.59h-1.11c-11-.24-21.22-3.5-28.63-9.16a36.5,36.5,0,0,1-11.83-16.13,21,21,0,0,0,5.8,3.41,44.73,44.73,0,0,0,17,3.56,33,33,0,0,0,17.81-5l0,0,0,0a49.07,49.07,0,0,0,12.21-11.36c1.3-1.63,2.49-3.3,3.64-4.92l1.16-1.61a34.82,34.82,0,0,1,5-5.5l0,0,0,0a52.44,52.44,0,0,1,13-8.81c.72-.34,1.48-.66,2.37-1a15.28,15.28,0,0,0,5.39,4.9,13.05,13.05,0,0,0,4.65,1.56l.1,0h.1l.56,0a7.7,7.7,0,0,0,3-.67l.33-.12c.28,0,.94.21,2.19,1.6a23.92,23.92,0,0,0,5.8,5.24l.08.05.08,0a19.33,19.33,0,0,0,7.93,2.52h.11c.38,0,.76,0,1.14,0a18.3,18.3,0,0,0,14.88-7.67c.3-.4.56-.8.81-1.19.14-.21.31-.48.47-.71l.71,1,1.71.22a4.91,4.91,0,0,0,.67.05c2.66,0,5.94-2.26,6-2.31a8.29,8.29,0,0,0,3.73-7.17c-.2-4.55-4.21-8.5-7.57-10.51l0,0,0,0a42.88,42.88,0,0,0-4.19-2.07l-.1,0-.09,0a7.19,7.19,0,0,1-1.19-.56l0-.24c0-.23,0-.46-.07-.66a23.6,23.6,0,0,0-1-4.67,32.92,32.92,0,0,0-2.6-5.54c-.5-.91-1-1.77-1.37-2.62a20.29,20.29,0,0,1-1.83-6.75,34.05,34.05,0,0,1,1.93-14.42,37.4,37.4,0,0,1,3.45-7.12c.12-.2.26-.4.4-.6a13.81,13.81,0,0,0,1-1.57,4.72,4.72,0,0,0-.87-5.66l-.1-.11a24,24,0,0,0-3-3,15.41,15.41,0,0,0-9.12-3.78H217a18.13,18.13,0,0,0-9.34,2.64,38.16,38.16,0,0,0-6.9,4.93l0,0,0,0c-2,1.84-4.17,5.19-3.17,10.65.11.6.24,1.21.36,1.82a13.74,13.74,0,0,1,.46,5.37,9,9,0,0,1-1.62,2.86,23.41,23.41,0,0,0-1.93,3.06c-.43.84-.75,1.59-1,2.2s-.39.92-.54,1.19l-.41.75c-.55-.42-1.08-.87-1.58-1.33l-.11-.1-.11-.09c-3.74-3-9.76-3.4-13-3.4a36.53,36.53,0,0,0-6.7.61c-1.94.37-3.82.85-5.64,1.31a42,42,0,0,1-10.07,1.7h-.41a19.89,19.89,0,0,1-6.91-1.35,25.33,25.33,0,0,1-3.62-1.88l.61-.68a24.06,24.06,0,0,1,4.84-4,19.82,19.82,0,0,1,10.64-3.1c.65,0,1.31,0,2,.1a26.41,26.41,0,0,1,6.82,1.91l.09,0,.09,0a18.22,18.22,0,0,0,6.41,1.16c.48,0,1,0,1.46-.06,6.1-.49,10.85-4,12.41-9.2l1.64-5.45-5.69.31h-.24c-2.23,0-4.11-1.81-6.61-4.94-2.78-3.49-6.32-7.25-11.47-8.69a45.11,45.11,0,0,0-12.19-1.72,38.86,38.86,0,0,0-17.83,4.22l3.22-3.46-8.35-.2a7.49,7.49,0,0,0,.83-7.95l0-.05,0,0a9.78,9.78,0,0,0-2.91-3.35,19.23,19.23,0,0,0-2.3-1.49l-.09-.05-.1,0a223.83,223.83,0,0,1-25.81-14.57A42.34,42.34,0,0,1,94.55,188a15.87,15.87,0,0,1-2.32-3.46,16.3,16.3,0,0,1,7.25-21.84,16.81,16.81,0,0,1,7.34-1.7m13.82,133.77a9.48,9.48,0,0,1,2.65.37,8.19,8.19,0,0,1,5.63,6.6,7.6,7.6,0,0,1-1.84,6.16,8.58,8.58,0,0,1-6.36,3,7.29,7.29,0,0,1-3.39-.83,8.37,8.37,0,0,1-4.47-6.86v-.42a7.12,7.12,0,0,0-1.11-4.42l.59-.45a14.52,14.52,0,0,1,8.3-3.16m198.56,1a3.71,3.71,0,0,1,.88.1,15.54,15.54,0,0,1,2.62,1.29,5.55,5.55,0,0,0-.73,2.21,3.1,3.1,0,0,1-2.3,2.52,3,3,0,0,1-.78.1,3.11,3.11,0,0,1-3-2.36,2.78,2.78,0,0,1,.48-2.5,3.65,3.65,0,0,1,2.84-1.36M106.82,157a20.64,20.64,0,0,0-9.1,2.11,20.3,20.3,0,0,0-6.14,31.57,46.49,46.49,0,0,0,8.28,7.12,226.81,226.81,0,0,0,26.31,14.86,13.82,13.82,0,0,1,1.84,1.2,5.64,5.64,0,0,1,1.76,2,3.51,3.51,0,0,1-.48,3.83A12.17,12.17,0,0,1,120,224c-.25,0-.5,0-.75,0,3,1.61,8.75,2,12.59,2.09-3.17,3.4-3.85,8.46-4,13.22a33.63,33.63,0,0,1,27.61-13.77,41.29,41.29,0,0,1,11.12,1.57c4,1.12,6.89,4.17,9.41,7.33s5.39,6.45,9.74,6.45h.46c-1.2,4-5,6.05-8.9,6.36-.38,0-.76,0-1.14,0a14.32,14.32,0,0,1-5-.91,31.07,31.07,0,0,0-7.92-2.2c-.81-.08-1.63-.13-2.44-.13A23.86,23.86,0,0,0,148,247.72a27.58,27.58,0,0,0-5.63,4.7,32.52,32.52,0,0,0-2.37,2.87,13.5,13.5,0,0,0-.81,1.5s.81.64,1.06.82a30.84,30.84,0,0,0,6.56,3.79,24.09,24.09,0,0,0,8.35,1.64h.48c5.68,0,10.93-2,16.46-3.08a32.67,32.67,0,0,1,5.95-.54c4.19,0,8.32.79,10.53,2.54a30.45,30.45,0,0,0,2.65,2.16c.1.06.19.13.29.18a2.57,2.57,0,0,0,.53.25,3.47,3.47,0,0,0,1.23.22,3.31,3.31,0,0,0,.55,0,3.58,3.58,0,0,0,2.94-3v-.2c.51-.92.89-2.1,1.61-3.51,1.2-2.38,3.31-4.21,3.9-6.88.65-2.93-.27-5.88-.79-8.76-.49-2.67-.12-5.1,1.94-7a34.28,34.28,0,0,1,6.25-4.45,14.12,14.12,0,0,1,7.34-2.1,11.32,11.32,0,0,1,6.77,2.82,20.56,20.56,0,0,1,2.55,2.56c.43.5.78.72.46,1.34s-.85,1.28-1.24,1.92a41.14,41.14,0,0,0-3.79,7.85,37.71,37.71,0,0,0-2.16,16.1,24.44,24.44,0,0,0,2.2,8.12c1.22,2.6,2.89,5,3.79,7.72a19.55,19.55,0,0,1,.84,3.86c.15,1.25.08,2.43,1.13,3.31a11.59,11.59,0,0,0,2.76,1.46,37.67,37.67,0,0,1,3.77,1.86c3.61,2.15,8.45,7.46,3.55,11A9.7,9.7,0,0,1,234,300.3h-.14a3.73,3.73,0,0,0-2.78-1.54h-.24a3.23,3.23,0,0,0-2,.69c-1,.7-1.7,2.16-2.44,3.14a14.3,14.3,0,0,1-11.65,6c-.3,0-.59,0-.89,0a15.19,15.19,0,0,1-6.28-2,20.25,20.25,0,0,1-4.91-4.46c-1.39-1.56-3.1-3-5.26-3a3.85,3.85,0,0,0-.48,0c-1,.11-1.81.77-2.84.77h-.21a9.24,9.24,0,0,1-3.27-1.1,11.34,11.34,0,0,1-5-5.46c-.17-.39-.15-.65-.59-.73a5.41,5.41,0,0,0-1.67.52,37.71,37.71,0,0,0-4.15,1.65,56.18,56.18,0,0,0-14,9.48,39.11,39.11,0,0,0-5.58,6.13c-1.56,2.16-3.06,4.35-4.72,6.43a45.41,45.41,0,0,1-11.25,10.48A29.11,29.11,0,0,1,128,331.63a41.07,41.07,0,0,1-15.53-3.27,17.26,17.26,0,0,1-9.39-8.82,18.09,18.09,0,0,1-.52-13.3,20.35,20.35,0,0,1,1.71-3.55,7,7,0,0,1,1.82-2.37,1.74,1.74,0,0,1,2.35.26c.62.79.41,1.94.46,2.86a12.33,12.33,0,0,0,6.61,10.19,11.38,11.38,0,0,0,5.24,1.28c6.91,0,13.28-6.26,12.16-13.76a12.16,12.16,0,0,0-8.44-9.84,13.52,13.52,0,0,0-3.8-.54,18.17,18.17,0,0,0-10.69,4,27.53,27.53,0,0,0-9.14,11.81,30.15,30.15,0,0,0-1.29,16.74,40.69,40.69,0,0,0,15,24.68c8.78,6.7,20.1,9.76,31,10h1.2c3.18,0,9.37-.26,13.19-1.93a.67.67,0,0,1,.24,0,.63.63,0,0,1,.6.41.65.65,0,0,1,0,.56c-2.1,3.5-6.24,5.48-10.76,5.48h-.24c3.34,1.6,7,2,10.82,2,1.12,0,2.26,0,3.4-.07,5.2-.19,10.37-1.5,15.39-2.84a68.66,68.66,0,0,0,26.32-13.19,30,30,0,0,0,5.55-5.36,26.34,26.34,0,0,0,2.14-3,5.35,5.35,0,0,1,2.4-2.59,3.83,3.83,0,0,1,5,2.11,4.44,4.44,0,0,1,.19.62c.74,2.51,3.88,5.84,6.55,7.95,8.36,6.59,17.55,9.68,27.24,12.64a89,89,0,0,0,15.3,3.4,54.92,54.92,0,0,0,7.36.49l1.48,0c2.67-.1,5.76-.46,8-2l-.9,0a11.75,11.75,0,0,1-10.4-6.28.37.37,0,0,1,.18-.49.41.41,0,0,1,.16,0,.34.34,0,0,1,.19.05c4.33,2.63,9.54,3.52,14.55,3.63l1.35,0a60,60,0,0,0,15.65-2.09c11.46-3.15,20.38-11.36,25.32-22.07,4.79-10.39,6.24-23.07,0-33.17a26.73,26.73,0,0,0-4.91-5.85,18.76,18.76,0,0,0-6.73-4.24,7.65,7.65,0,0,0-2.1-.29c-4.52,0-8.46,4-7.19,8.87a7.11,7.11,0,0,0,13.93-.78,1.68,1.68,0,0,1,1.67-1.55h.13l.2,0c1.11.22,2.06,1.66,2.71,2.49a18.33,18.33,0,0,1,3.54,15.38,17.89,17.89,0,0,1-9.51,11.67,26.43,26.43,0,0,1-11.87,2.75,26.74,26.74,0,0,1-19.7-8.39c-2.12-2.31-3.85-4.92-6-7.21a61.05,61.05,0,0,0-7.15-6.49A36.64,36.64,0,0,0,276.3,306c-1-.62-2.22-1.21-2.69-2.39a2.87,2.87,0,0,1,1.18-3.44A17.36,17.36,0,0,1,278,299c11.52-4.2,21.68-13.25,25.14-25a54.94,54.94,0,0,0,1.69-7.06,17.3,17.3,0,0,1-.05-22.45,10.38,10.38,0,0,1,1.74-2,.61.61,0,0,0,.07-.86h0a6,6,0,0,1,.41-8.48,5.53,5.53,0,0,1,.59-.47l.54-.39c-3-.79-6.67-2.73-7.91-6.23,3.82,0,10.09-.39,13.29-2.1-.25,0-.51,0-.76,0a12.21,12.21,0,0,1-9.06-4,3.8,3.8,0,0,1,.41-5.36l.26-.2a20,20,0,0,1,2.11-1.31,246.63,246.63,0,0,0,23.87-13.36c7.66-5,16.24-10.28,16.24-21.93,0-8.42-6.79-20.55-20.56-20.55-3,0-5.81.11-13.91,5.42-29.29,19.24-60.82,29.43-95.26,29.43-52.37,0-88.59-24.56-91.82-26.75-3-2-5.82-4.6-9.1-6.24a20.65,20.65,0,0,0-9.11-2.11Z"/>
      </g>
      <g>
        <path class="cls-4" d="M216.74,184a164.1,164.1,0,0,1-92.63-28.87,3,3,0,0,1-1.22-2.31,93.46,93.46,0,0,1,1-13.43c1.77-13.53,9-33.94,24.08-50.77,17.3-19.35,41.1-29.78,68.82-30.17h1.33A91.63,91.63,0,0,1,282.46,85.1c15.57,15.27,25.74,35.7,27.22,54.65,0,.12.8,9.16.8,13.47a2.55,2.55,0,0,1-.83,1.78C302.7,160,266.62,184,216.74,184Z"/>
        <path class="cls-5" d="M218.1,60.44a89.6,89.6,0,0,1,63,26.09c15.23,14.94,25.18,34.89,26.63,53.42,0,.09.78,9,.79,13.2a.54.54,0,0,1-.13.32,151.73,151.73,0,0,1-30.24,16.29A160.62,160.62,0,0,1,125.3,153.52a1,1,0,0,1-.41-.73,90,90,0,0,1,1-13.11v-.06c1.73-13.2,8.83-33.18,23.58-49.67A86.55,86.55,0,0,1,176.86,69.3a95.24,95.24,0,0,1,39.94-8.85h1.3m0-4h-1.36c-64.74.91-91.06,53.76-94.85,82.65a95.07,95.07,0,0,0-1,13.79,5,5,0,0,0,2.07,3.87A166.54,166.54,0,0,0,216.74,186c50.2,0,86.1-23.63,94.16-29.43a4.55,4.55,0,0,0,1.58-3.35c0-4.45-.81-13.62-.81-13.62-3-38.26-40-83.16-93.57-83.16Z"/>
      </g>
      <path class="cls-6" d="M323.79,238.34a5.34,5.34,0,0,0-2.3-4.46c-1.23-.84-3.8-.7-4.06-.7h-6a4.58,4.58,0,0,0-4.57,4.59c0,.14,0,.27,0,.41a4.75,4.75,0,0,0,4.8,4.14H313a1.63,1.63,0,0,1,1.64,1.62v.93a4.75,4.75,0,0,0,4.14,4.8,4.59,4.59,0,0,0,5-4.16c0-.13,0-.26,0-.39Z"/>
      <path class="cls-6" d="M319.92,319.9a3.58,3.58,0,1,0-1.09,0A3.32,3.32,0,0,0,319.92,319.9Z"/>
      <path class="cls-6" d="M323.31,255.8a4,4,0,1,0,0,1.28A3.93,3.93,0,0,0,323.31,255.8Z"/>
      <path class="cls-6" d="M323.31,268.6a4,4,0,1,0,0,1.28A3.93,3.93,0,0,0,323.31,268.6Z"/>
      <path class="cls-6" d="M320,278.08a4,4,0,1,0,3.32,4.58,3.81,3.81,0,0,0,0-1.26A4,4,0,0,0,320,278.08Z"/>
    </g>
    <path class="cls-7" d="M319.35,361.1a2.83,2.83,0,1,0,2.83,2.83h0A2.83,2.83,0,0,0,319.35,361.1Z"/>
    <circle class="cls-8" cx="319.35" cy="340.48" r="2.74"/>
    <path class="cls-9" d="M295,258.69a32,32,0,1,1-61.54-12.47c4.86-11.5,30.71-2.88,50.54-11.69A32,32,0,0,1,295,258.69Z"/>
    <path class="cls-7" d="M230.68,285.54a3.57,3.57,0,1,0-1.08,0A3.26,3.26,0,0,0,230.68,285.54Z"/>
    <path class="cls-7" d="M197.75,306.11a3.55,3.55,0,1,0-4.07-4.07,3.58,3.58,0,0,0,3,4.07A3.76,3.76,0,0,0,197.75,306.11Z"/>
  </g>
</svg>
